PathFileType	4	(X/Y/Z)	C:/Users/opensim2020/Desktop/walking_exp_matlab/subject06_walking12_straigt_02.trc																																																																																																																																														
DataRate	CameraRate	NumFrames	NumMarkers	Units	OrigDataRate	OrigDataStartFrame	OrigNumFrames																																																																																																																																										
100	100	4	48	mm	100	1628	215																																																																																																																																										
Frame#	Time	LFHD			RFHD			LBHD			RBHD			C7			T10			CLAV			STRN			RBAK			LSHO			LUPA			LELB			LFRM			LWRA			LWRB			LFIN			RSHO			RUPA			RELB			RFRM			RWRA			RWRB			RFIN			LASI			RASI			LPSI			RPSI			LTHI			LKNE			LTIB			LANK			LHEE			LTOE			RTHI			RKNE			RTIB			RANK			RHEE			RTOE			*39			*40			*41			*42			*43			*44			*45			*46			*47		
		X1	Y1	Z1	X2	Y2	Z2	X3	Y3	Z3	X4	Y4	Z4	X5	Y5	Z5	X6	Y6	Z6	X7	Y7	Z7	X8	Y8	Z8	X9	Y9	Z9	X10	Y10	Z10	X11	Y11	Z11	X12	Y12	Z12	X13	Y13	Z13	X14	Y14	Z14	X15	Y15	Z15	X16	Y16	Z16	X17	Y17	Z17	X18	Y18	Z18	X19	Y19	Z19	X20	Y20	Z20	X21	Y21	Z21	X22	Y22	Z22	X23	Y23	Z23	X24	Y24	Z24	X25	Y25	Z25	X26	Y26	Z26	X27	Y27	Z27	X28	Y28	Z28	X29	Y29	Z29	X30	Y30	Z30	X31	Y31	Z31	X32	Y32	Z32	X33	Y33	Z33	X34	Y34	Z34	X35	Y35	Z35	X36	Y36	Z36	X37	Y37	Z37	X38	Y38	Z38	X39	Y39	Z39	X40	Y40	Z40	X41	Y41	Z41	X42	Y42	Z42	X43	Y43	Z43	X44	Y44	Z44	X45	Y45	Z45	X46	Y46	Z46	X47	Y47	Z47	X48	Y48	Z48
																																																																																																																																																	
189	1.88	-1489.39893	1658.33215	-767.29694	-1358.62952	1639.80103	-755.50464	-1505.32568	1605.26538	-634.20056	-1377.32397	1592.28076	-623.67438	-1451.9469	1439.776	-628.09778	-1442.89905	1109.26599	-606.4552	-1449.02332	1367.03723	-741.22668	-1462.09741	1192.20569	-788.62018	-1381.94946	1263.61548	-560.97888	-1610.90259	1401.00818	-684.04047	-1687.17188	1206.24451	-726.12817	-1702.03918	1099.57971	-759.98193	-1711.55566	1018.3772	-882.39874	-1655.76904	1005.41119	-1003.38959	-1691.80103	950.59833	-978.73608	-1686.97815	944.73291	-1068.10962	-1288.12158	1392.95178	-688.92371	-1214.10181	1196.90173	-623.00214	-1207.72803	1075.10681	-614.24243	-1192.1897	955.20258	-600.51764	-1216.71118	804.41345	-628.64075	-1184.92126	820.21973	-571.42981	-1180.37891	736.30365	-585.38531	-1563.79968	947.63562	-771.64563	-1342.21045	955.33398	-792.64569	-1517.86243	979.2182	-616.84869	-1350.47266	979.64301	-638.94647	-1607.69214	642.31848	-652.06494	-1584.13293	481.18018	-614.4834	-1570.13586	266.45068	-466.32761	-1520.24426	115.0216	-384.46512	-1475.7334	119.52943	-341.66452	-1514.42725	39.08487	-508.28989	-1279.71924	627.74561	-796.86768	-1313.81506	513.71179	-840.88458	-1331.36182	251.72092	-873.27063	-1384.73059	78.50186	-924.17084	-1434.42029	60.1605	-898.68011	-1376.01648	36.76918	-1088.72021	-1437.25964	1694.1604	-662.30341	NaN	NaN	NaN	NaN	NaN	NaN	NaN	NaN	NaN	NaN	NaN	NaN	NaN	NaN	NaN	NaN	NaN	NaN	NaN	NaN	NaN	NaN	NaN	NaN
190	1.89	-1487.90503	1658.3927	-778.13318	-1357.18323	1639.67053	-766.26825	-1503.95972	1605.33081	-645.034	-1375.9502	1592.19971	-634.487	-1450.44971	1439.65576	-638.96649	-1441.86609	1108.83093	-618.32928	-1447.83777	1367.07471	-752.17407	-1461.11926	1192.35791	-799.92383	-1380.60571	1263.0188	-572.0567	-1609.7478	1400.90613	-694.84711	-1685.84314	1205.54297	-735.70319	-1700.64417	1098.65881	-768.68842	-1710.47632	1016.91327	-890.8006	-1654.7135	1003.66406	-1011.73462	-1690.67346	948.79584	-986.74384	-1685.8855	942.66516	-1076.12476	-1286.80566	1392.60205	-699.99365	-1212.7948	1196.16833	-635.01917	-1206.51331	1074.40454	-626.47992	-1190.95715	954.53125	-613.09381	-1215.69641	803.6358	-641.20892	-1183.75012	819.45831	-584.26642	-1179.10132	735.63629	-598.44214	-1562.94934	947.4137	-783.83069	-1341.22705	955.78052	-804.97815	-1517.07556	978.62134	-629.19055	-1349.81531	979.77832	-651.26581	-1607.07153	641.63751	-664.78271	-1583.57129	480.23831	-628.21942	-1570.33252	269.25085	-474.76163	-1521.44238	120.18517	-388.55417	-1477.12085	126.25615	-345.95102	-1514.42834	39.07952	-509.06372	-1280.65198	629.073	-810.52698	-1315.96936	515.78711	-854.6955	-1331.91455	251.42041	-880.72876	-1385.97717	76.37024	-924.42706	-1434.92249	56.81473	-898.03131	-1377.68494	36.50276	-1089.08948	-1435.77588	1694.13574	-673.07074	NaN	NaN	NaN	NaN	NaN	NaN	NaN	NaN	NaN	NaN	NaN	NaN	NaN	NaN	NaN	NaN	NaN	NaN	NaN	NaN	NaN	NaN	NaN	NaN
191	1.9	-1486.4021	1658.67285	-788.92957	-1355.67603	1639.80457	-777.15015	-1502.5553	1605.66174	-655.88794	-1374.61597	1592.39734	-645.24243	-1449.2356	1439.80896	-649.65747	-1441.1499	1108.69482	-629.86316	-1446.64685	1367.40076	-762.98364	-1460.09534	1192.82898	-811.14832	-1379.18127	1262.68994	-583.25275	-1608.64868	1401.0553	-705.56427	-1684.49597	1205.08984	-745.08478	-1699.2605	1097.91455	-777.0943	-1709.12012	1015.28204	-898.57471	-1653.65137	1001.37616	-1019.8844	-1689.78259	946.37903	-993.85974	-1684.90601	939.68774	-1083.45215	-1285.46863	1392.55249	-711.14197	-1211.4989	1195.71741	-647.04865	-1205.26807	1073.9342	-639.05615	-1189.755	953.93726	-625.89996	-1214.6145	803.09344	-654.24554	-1182.40442	818.85626	-597.44305	-1177.86682	735.17261	-611.7619	-1561.97046	947.5528	-796.16345	-1340.125	956.76251	-817.55768	-1516.44678	978.47028	-641.46979	-1349.12085	980.55774	-663.11353	-1606.41113	641.11011	-677.86597	-1583.3855	479.43933	-642.3446	-1570.5094	272.5141	-483.80997	-1522.60925	125.98909	-393.31021	-1478.4137	133.69402	-351.2211	-1514.33813	39.06668	-509.90552	-1282.25	630.14032	-824.31897	-1317.37292	516.78192	-867.51117	-1331.20691	251.14957	-888.16565	-1386.14795	74.49963	-924.83826	-1434.76416	53.72749	-897.61407	-1378.31287	36.58677	-1089.55981	-1434.26294	1694.37683	-683.94604	NaN	NaN	NaN	NaN	NaN	NaN	NaN	NaN	NaN	NaN	NaN	NaN	NaN	NaN	NaN	NaN	NaN	NaN	NaN	NaN	NaN	NaN	NaN	NaN
192	1.91	-1484.80835	1658.9696	-799.823	-1354.29382	1639.98206	-787.8775	-1501.16235	1606.27551	-666.6629	-1373.1825	1592.90393	-656.02197	-1447.53174	1440.21912	-660.76514	-1440.005	1108.76428	-641.68231	-1445.4342	1367.90161	-773.82465	-1459.08838	1193.55457	-822.36414	-1377.99646	1262.7583	-594.21802	-1607.43799	1401.38525	-716.4574	-1683.03125	1204.86487	-754.28662	-1697.7312	1097.42468	-785.39398	-1707.86328	1013.40552	-906.08258	-1652.67639	998.47516	-1027.65955	-1688.66077	943.39337	-1000.48383	-1684.04028	935.88184	-1090.16345	-1284.20984	1392.76282	-722.0434	-1210.29407	1195.47607	-659.09637	-1204.0636	1073.67468	-651.67334	-1188.55347	953.67993	-639.06567	-1213.4209	803.01166	-667.97821	-1181.16309	818.44165	-611.01971	-1176.53174	734.79749	-625.77692	-1560.78516	947.9411	-808.36169	-1339.11023	957.96478	-829.90356	-1516.10071	978.50323	-653.61255	-1348.88696	981.14429	-675.54724	-1605.83301	640.70227	-691.46271	-1583.36865	478.74991	-657.3858	-1570.69775	276.27258	-493.608	-1523.54956	132.29279	-399.28299	-1479.36548	141.82414	-357.69446	-1514.17639	39.01439	-510.91028	-1282.69275	631.7276	-838.45569	-1317.69397	516.83118	-879.23303	-1330.27161	251.05902	-894.18451	-1385.58984	72.65201	-925.61298	-1433.93604	50.86356	-897.30127	-1378.79041	36.61445	-1089.99561	-1432.78711	1694.85815	-694.94855	NaN	NaN	NaN	NaN	NaN	NaN	NaN	NaN	NaN	NaN	NaN	NaN	NaN	NaN	NaN	NaN	NaN	NaN	NaN	NaN	NaN	NaN	NaN	NaN
